<svg width="68" height="58" viewBox="0 0 68 58" fill="none" xmlns="http://www.w3.org/2000/svg">
<path d="M10.5683 26.9119L9.88618 28.2814L5.21619 26.0938L4.47391 27.5841L3.32475 27.0458L5.4914 22.6955L6.64056 23.2338L5.89828 24.7242L10.5683 26.9119Z" fill="#605416"/>
<path d="M11.7814 23.8038L14.3905 19.9078L13.4442 19.3162L11.5712 22.113L10.0679 21.1731L11.4551 19.1017L10.5011 18.5053L9.11394 20.5767L7.78608 19.7466L9.59393 17.047L8.65527 16.4602L6.11125 20.259L11.7814 23.8038Z" fill="#605416"/>
<path d="M15.2243 17.957L16.356 17.1109L15.7348 15.4525L17.753 13.9435L19.2536 14.9444L20.4285 14.0659L14.319 10.2886L12.9639 11.3018L15.2243 17.957ZM15.3256 14.478L15.0615 13.7432C14.8039 13.0598 14.523 12.3038 14.2413 11.6047L14.2701 11.5831C14.9066 12.0058 15.5967 12.4669 16.2148 12.8809L16.8825 13.314L15.3256 14.478Z" fill="#605416"/>
<path d="M21.6682 12.7305L22.8307 12.4452L22.1193 9.75678C21.9558 9.13904 21.629 8.25563 21.4044 7.6529L21.4393 7.64433L22.4674 9.03207L24.3832 11.4529L25.1262 11.2706L25.6054 8.26223L25.8272 6.56784L25.8709 6.55712C25.9644 7.19201 26.1165 8.11831 26.2799 8.73605L26.9913 11.4245L28.1714 11.135L26.4607 4.67052L25.0272 5.0222L24.5394 8.38476C24.488 8.82359 24.4412 9.27981 24.3769 9.74032L24.3419 9.7489C24.0741 9.36988 23.7887 8.99514 23.5255 8.63351L21.3911 5.91427L19.9576 6.26595L21.6682 12.7305Z" fill="#605416"/>
<path d="M31.3098 8.25278L31.2985 7.02883L33.7101 6.98669L33.7214 8.21063L31.3098 8.25278Z" fill="#605416"/>
<path d="M43.1644 7.97112C43.0152 8.68775 42.7546 9.26204 42.3829 9.694C42.0111 10.126 41.5463 10.4159 40.9886 10.5638C40.4309 10.7117 39.8009 10.7214 39.0985 10.5928L37.1952 10.2443L38.5052 3.95328L40.5857 4.33417C41.2526 4.45627 41.8006 4.67856 42.2297 5.00104C42.6647 5.32461 42.9621 5.73577 43.1216 6.23453C43.2884 6.7285 43.3026 7.30736 43.1644 7.97112ZM41.5953 7.73872C41.6846 7.30992 41.696 6.94614 41.6295 6.64737C41.569 6.34968 41.4318 6.11114 41.218 5.93173C41.01 5.75341 40.729 5.63183 40.3749 5.567L39.7552 5.45354L38.957 9.28632L39.4439 9.37546C40.04 9.4846 40.5134 9.40356 40.8639 9.13236C41.2157 8.85528 41.4595 8.39074 41.5953 7.73872Z" fill="#605416"/>
<path d="M43.5144 12.6828L47.5858 15.0089L48.1697 14.0578L45.247 12.388L46.1747 10.8771L48.3393 12.1138L48.928 11.1551L46.7633 9.91838L47.5827 8.58384L50.4037 10.1956L50.9829 9.25222L47.0132 6.98415L43.5144 12.6828Z" fill="#605416"/>
<path d="M49.4791 15.8587L51.5391 17.505C52.9171 18.6063 54.132 18.8172 55.0192 17.776C55.5913 17.1046 55.501 16.3646 54.9721 15.7231L54.9955 15.6957C55.6359 15.9427 56.2988 15.6779 56.6958 15.2121C57.5189 14.2463 56.9449 13.2694 55.7145 12.2861L53.8163 10.769L49.4791 15.8587ZM53.0752 13.6774L54.1902 12.369L55.076 13.077C55.7369 13.6052 55.9495 14.063 55.5409 14.5425C55.1673 14.9809 54.6079 14.9023 53.94 14.3685L53.0752 13.6774ZM51.1781 15.9037L52.4273 14.4378L53.4256 15.2357C54.2341 15.8818 54.4527 16.402 54.0324 16.8952C53.5538 17.4569 52.9709 17.3365 52.1905 16.7128L51.1781 15.9037Z" fill="#605416"/>
<path d="M53.7 20.9797L56.4156 25.1397L57.3478 24.5595L56.3491 23.0297L60.1391 20.6709L61.1378 22.2008L62.0929 21.6063L59.3772 17.4463L58.4221 18.0407L59.406 19.548L55.6161 21.9067L54.6322 20.3995L53.7 20.9797Z" fill="#605416"/>
<path d="M56.3261 28.2134L56.8337 29.4449L62.0228 27.3931L62.8768 29.465L63.9063 29.058L61.6941 23.691L60.6647 24.098L61.5152 26.1616L56.3261 28.2134Z" fill="#605416"/>
<mask id="path-11-inside-1_22_807" fill="white">
<path fill-rule="evenodd" clip-rule="evenodd" d="M32.6532 35.0154H32.1509L29.3961 39.6493L31.0579 40.581C31.7232 40.9541 32.5126 41.0544 33.2517 40.8621C33.9904 40.6699 34.6182 40.2012 34.999 39.5607C35.3797 38.9203 35.4837 38.1579 35.2858 37.4405C35.0878 36.7228 34.6036 36.109 33.9382 35.7359L32.6532 35.0154ZM28.0128 40.0198L26.3304 42.8498C26.1893 43.0872 26.2701 43.3891 26.511 43.5241C26.7519 43.6592 27.0615 43.5762 27.2026 43.3389L28.8851 40.5089L30.5468 41.4406C31.4394 41.9411 32.5014 42.0775 33.4999 41.8176C34.4988 41.5577 35.3525 40.9223 35.8712 40.0498C36.3899 39.1773 36.5297 38.1417 36.262 37.1716C36.0179 36.2869 35.4533 35.5227 34.6785 35.0154H56.2536C56.2596 35.2238 56.2626 35.4329 56.2626 35.6428C56.2626 47.7694 46.1401 57.6 33.6533 57.6C21.1665 57.6 11.0439 47.7694 11.0439 35.6428C11.0439 35.4329 11.047 35.2238 11.053 35.0154H30.9879L28.5238 39.1602L23.925 36.5817C23.6842 36.4466 23.3745 36.5296 23.2334 36.7669C23.0923 37.0043 23.1732 37.3062 23.414 37.4412L28.0128 40.0198Z"/>
</mask>
<path fill-rule="evenodd" clip-rule="evenodd" d="M32.6532 35.0154H32.1509L29.3961 39.6493L31.0579 40.581C31.7232 40.9541 32.5126 41.0544 33.2517 40.8621C33.9904 40.6699 34.6182 40.2012 34.999 39.5607C35.3797 38.9203 35.4837 38.1579 35.2858 37.4405C35.0878 36.7228 34.6036 36.109 33.9382 35.7359L32.6532 35.0154ZM28.0128 40.0198L26.3304 42.8498C26.1893 43.0872 26.2701 43.3891 26.511 43.5241C26.7519 43.6592 27.0615 43.5762 27.2026 43.3389L28.8851 40.5089L30.5468 41.4406C31.4394 41.9411 32.5014 42.0775 33.4999 41.8176C34.4988 41.5577 35.3525 40.9223 35.8712 40.0498C36.3899 39.1773 36.5297 38.1417 36.262 37.1716C36.0179 36.2869 35.4533 35.5227 34.6785 35.0154H56.2536C56.2596 35.2238 56.2626 35.4329 56.2626 35.6428C56.2626 47.7694 46.1401 57.6 33.6533 57.6C21.1665 57.6 11.0439 47.7694 11.0439 35.6428C11.0439 35.4329 11.047 35.2238 11.053 35.0154H30.9879L28.5238 39.1602L23.925 36.5817C23.6842 36.4466 23.3745 36.5296 23.2334 36.7669C23.0923 37.0043 23.1732 37.3062 23.414 37.4412L28.0128 40.0198Z" fill="#F7CA9C"/>
<path d="M32.6532 35.0154L33.6313 33.2709L33.1756 33.0154H32.6532V35.0154ZM32.1509 35.0154V33.0154H31.0132L30.4318 33.9934L32.1509 35.0154ZM29.3961 39.6493L27.6769 38.6273L26.6287 40.3905L28.418 41.3938L29.3961 39.6493ZM31.0579 40.581L30.0797 42.3255L30.0797 42.3255L31.0579 40.581ZM33.2517 40.8621L32.748 38.9265L32.748 38.9265L33.2517 40.8621ZM34.999 39.5607L36.7181 40.5828L36.7181 40.5828L34.999 39.5607ZM35.2858 37.4405L37.2137 36.9086L37.2137 36.9086L35.2858 37.4405ZM33.9382 35.7359L32.9601 37.4804L32.9601 37.4804L33.9382 35.7359ZM26.3304 42.8498L28.0495 43.8718L28.0495 43.8718L26.3304 42.8498ZM28.0128 40.0198L29.732 41.0418L30.7802 39.2785L28.991 38.2753L28.0128 40.0198ZM26.511 43.5241L25.5329 45.2686L25.5329 45.2686L26.511 43.5241ZM27.2026 43.3389L25.4835 42.3168L25.4835 42.3169L27.2026 43.3389ZM28.8851 40.5089L29.8632 38.7644L28.1624 37.8107L27.1659 39.4868L28.8851 40.5089ZM30.5468 41.4406L31.525 39.6961L31.525 39.6961L30.5468 41.4406ZM33.4999 41.8176L32.9963 39.8821L32.9963 39.8821L33.4999 41.8176ZM35.8712 40.0498L34.1521 39.0278L34.1521 39.0278L35.8712 40.0498ZM36.262 37.1716L34.334 37.7035L34.334 37.7035L36.262 37.1716ZM34.6785 35.0154V33.0154H27.9715L33.5831 36.6888L34.6785 35.0154ZM56.2536 35.0154L58.2528 34.9577L58.1967 33.0154H56.2536V35.0154ZM11.053 35.0154V33.0154H9.10994L9.05383 34.9577L11.053 35.0154ZM30.9879 35.0154L32.7071 36.0374L34.5036 33.0154H30.9879V35.0154ZM28.5238 39.1602L27.5457 40.9047L29.2465 41.8584L30.243 40.1822L28.5238 39.1602ZM23.925 36.5817L24.9032 34.8372L24.9032 34.8372L23.925 36.5817ZM23.2334 36.7669L21.5143 35.7449L21.5143 35.7449L23.2334 36.7669ZM23.414 37.4412L22.4359 39.1857L22.4359 39.1857L23.414 37.4412ZM32.6532 33.0154H32.1509V37.0154H32.6532V33.0154ZM30.4318 33.9934L27.6769 38.6273L31.1152 40.6713L33.8701 36.0374L30.4318 33.9934ZM28.418 41.3938L30.0797 42.3255L32.036 38.8365L30.3742 37.9048L28.418 41.3938ZM30.0797 42.3255C31.1984 42.9528 32.5192 43.1193 33.7553 42.7976L32.748 38.9265C32.506 38.9895 32.2479 38.9554 32.036 38.8365L30.0797 42.3255ZM33.7553 42.7976C34.9923 42.4757 36.0623 41.6859 36.7181 40.5828L33.2798 38.5387C33.1741 38.7165 32.9885 38.864 32.748 38.9265L33.7553 42.7976ZM36.7181 40.5828C37.3753 39.4773 37.5574 38.1541 37.2137 36.9086L33.3578 37.9725C33.41 38.1617 33.3841 38.3633 33.2798 38.5387L36.7181 40.5828ZM37.2137 36.9086C36.8705 35.6645 36.0369 34.6197 34.9164 33.9914L32.9601 37.4804C33.1702 37.5982 33.305 37.7811 33.3578 37.9725L37.2137 36.9086ZM34.9164 33.9914L33.6313 33.2709L31.6751 36.7599L32.9601 37.4804L34.9164 33.9914ZM28.0495 43.8718L29.732 41.0418L26.2937 38.9978L24.6112 41.8278L28.0495 43.8718ZM27.4891 41.7796C28.229 42.1945 28.483 43.1427 28.0495 43.8718L24.6112 41.8278C23.8955 43.0317 24.3112 44.5837 25.5329 45.2686L27.4891 41.7796ZM25.4835 42.3169C25.8967 41.6217 26.7838 41.3841 27.4891 41.7796L25.5329 45.2686C26.72 45.9342 28.2263 45.5308 28.9218 44.3609L25.4835 42.3169ZM27.1659 39.4868L25.4835 42.3168L28.9218 44.3609L30.6042 41.5309L27.1659 39.4868ZM31.525 39.6961L29.8632 38.7644L27.9069 42.2533L29.5687 43.1851L31.525 39.6961ZM32.9963 39.8821C32.4949 40.0125 31.9642 39.9424 31.525 39.6961L29.5687 43.1851C30.9146 43.9397 32.5079 44.1424 34.0036 43.7531L32.9963 39.8821ZM34.1521 39.0278C33.9085 39.4376 33.497 39.7518 32.9963 39.8821L34.0036 43.7531C35.5007 43.3636 36.7965 42.4071 37.5904 41.0718L34.1521 39.0278ZM34.334 37.7035C34.456 38.1456 34.3943 38.6204 34.1521 39.0278L37.5904 41.0718C38.3856 39.7342 38.6033 38.1378 38.19 36.6396L34.334 37.7035ZM33.5831 36.6888C33.9604 36.9358 34.2224 37.2988 34.334 37.7035L38.19 36.6396C37.8134 35.2749 36.9463 34.1095 35.7739 33.3421L33.5831 36.6888ZM56.2536 33.0154H34.6785V37.0154H56.2536V33.0154ZM58.2626 35.6428C58.2626 35.4137 58.2593 35.1853 58.2528 34.9577L54.2544 35.0732C54.2599 35.2623 54.2626 35.4522 54.2626 35.6428H58.2626ZM33.6533 59.6C47.1891 59.6 58.2626 48.9287 58.2626 35.6428H54.2626C54.2626 46.6101 45.0911 55.6 33.6533 55.6V59.6ZM9.04395 35.6428C9.04395 48.9287 20.1175 59.6 33.6533 59.6V55.6C22.2155 55.6 13.0439 46.6101 13.0439 35.6428H9.04395ZM9.05383 34.9577C9.04725 35.1853 9.04395 35.4137 9.04395 35.6428H13.0439C13.0439 35.4522 13.0467 35.2623 13.0522 35.0732L9.05383 34.9577ZM30.9879 33.0154H11.053V37.0154H30.9879V33.0154ZM30.243 40.1822L32.7071 36.0374L29.2688 33.9934L26.8047 38.1382L30.243 40.1822ZM22.9469 38.3262L27.5457 40.9047L29.502 37.4157L24.9032 34.8372L22.9469 38.3262ZM24.9526 37.789C24.5393 38.4841 23.6523 38.7217 22.9469 38.3262L24.9032 34.8372C23.7161 34.1716 22.2097 34.575 21.5143 35.7449L24.9526 37.789ZM24.3922 35.6968C25.1321 36.1116 25.386 37.0598 24.9526 37.789L21.5143 35.7449C20.7986 36.9488 21.2143 38.5008 22.4359 39.1857L24.3922 35.6968ZM28.991 38.2753L24.3922 35.6968L22.4359 39.1857L27.0347 41.7643L28.991 38.2753Z" fill="#AE6D0C" mask="url(#path-11-inside-1_22_807)"/>
<mask id="path-13-inside-2_22_807" fill="white">
<path fill-rule="evenodd" clip-rule="evenodd" d="M56.2526 34.3881C56.2586 34.1797 56.2617 33.9705 56.2617 33.7607C56.2617 21.6341 46.1391 11.8035 33.6523 11.8035C21.1655 11.8035 11.043 21.6341 11.043 33.7607C11.043 33.9705 11.046 34.1797 11.052 34.3881H30.9869L31.4032 33.6878L29.7414 32.7561C28.8489 32.2556 28.1963 31.4306 27.9287 30.4609C27.661 29.4908 27.8008 28.4551 28.3195 27.5826C28.8382 26.7101 29.6918 26.0748 30.6907 25.8148C31.6893 25.555 32.7513 25.6914 33.6438 26.1918L35.3056 27.1236L36.988 24.2935C37.1292 24.0562 37.4388 23.9732 37.6797 24.1083C37.9205 24.2433 38.0014 24.5453 37.8603 24.7826L36.1779 27.6126L39.9375 29.7207C40.1784 29.8557 40.2592 30.1576 40.1181 30.395C39.977 30.6323 39.6674 30.7153 39.4265 30.5802L35.6668 28.4722L32.7865 33.3173L34.4482 34.249C34.5265 34.2929 34.6029 34.3393 34.6774 34.3881H56.2526ZM32.6521 34.3881L32.2754 34.1769L32.1499 34.3881H32.6521ZM31.9142 32.8282L34.7946 27.9831L33.1328 27.0514C32.4675 26.6783 31.6781 26.578 30.939 26.7703C30.2003 26.9626 29.5725 27.4312 29.1917 28.0717C28.811 28.7121 28.707 29.4745 28.9049 30.1919C29.1029 30.9096 29.5871 31.5234 30.2524 31.8965L31.9142 32.8282Z"/>
</mask>
<path fill-rule="evenodd" clip-rule="evenodd" d="M56.2526 34.3881C56.2586 34.1797 56.2617 33.9705 56.2617 33.7607C56.2617 21.6341 46.1391 11.8035 33.6523 11.8035C21.1655 11.8035 11.043 21.6341 11.043 33.7607C11.043 33.9705 11.046 34.1797 11.052 34.3881H30.9869L31.4032 33.6878L29.7414 32.7561C28.8489 32.2556 28.1963 31.4306 27.9287 30.4609C27.661 29.4908 27.8008 28.4551 28.3195 27.5826C28.8382 26.7101 29.6918 26.0748 30.6907 25.8148C31.6893 25.555 32.7513 25.6914 33.6438 26.1918L35.3056 27.1236L36.988 24.2935C37.1292 24.0562 37.4388 23.9732 37.6797 24.1083C37.9205 24.2433 38.0014 24.5453 37.8603 24.7826L36.1779 27.6126L39.9375 29.7207C40.1784 29.8557 40.2592 30.1576 40.1181 30.395C39.977 30.6323 39.6674 30.7153 39.4265 30.5802L35.6668 28.4722L32.7865 33.3173L34.4482 34.249C34.5265 34.2929 34.6029 34.3393 34.6774 34.3881H56.2526ZM32.6521 34.3881L32.2754 34.1769L32.1499 34.3881H32.6521ZM31.9142 32.8282L34.7946 27.9831L33.1328 27.0514C32.4675 26.6783 31.6781 26.578 30.939 26.7703C30.2003 26.9626 29.5725 27.4312 29.1917 28.0717C28.811 28.7121 28.707 29.4745 28.9049 30.1919C29.1029 30.9096 29.5871 31.5234 30.2524 31.8965L31.9142 32.8282Z" fill="#B5A24C"/>
<path d="M56.2526 34.3881V36.3881H58.1956L58.2518 34.4459L56.2526 34.3881ZM11.052 34.3881L9.05285 34.4458L9.10896 36.3881H11.052V34.3881ZM30.9869 34.3881V36.3881H32.1246L32.706 35.4101L30.9869 34.3881ZM31.4032 33.6878L33.1223 34.7098L34.1706 32.9465L32.3813 31.9433L31.4032 33.6878ZM29.7414 32.7561L28.7633 34.5005L28.7633 34.5005L29.7414 32.7561ZM27.9287 30.4609L26.0007 30.9928L26.0007 30.9928L27.9287 30.4609ZM30.6907 25.8148L30.1871 23.8793L30.1871 23.8793L30.6907 25.8148ZM33.6438 26.1918L34.622 24.4473L34.622 24.4473L33.6438 26.1918ZM35.3056 27.1236L34.3275 28.8681L36.0283 29.8217L37.0248 28.1456L35.3056 27.1236ZM36.988 24.2935L35.2689 23.2715L35.2689 23.2715L36.988 24.2935ZM37.6797 24.1083L36.7015 25.8528L36.7015 25.8528L37.6797 24.1083ZM37.8603 24.7826L39.5794 25.8046L39.5794 25.8046L37.8603 24.7826ZM36.1779 27.6126L34.4587 26.5906L33.4104 28.3539L35.1997 29.3571L36.1779 27.6126ZM39.9375 29.7207L38.9594 31.4652L38.9594 31.4652L39.9375 29.7207ZM40.1181 30.395L38.399 29.3729L38.399 29.373L40.1181 30.395ZM39.4265 30.5802L40.4046 28.8357L40.4046 28.8357L39.4265 30.5802ZM35.6668 28.4722L36.645 26.7277L34.9441 25.7741L33.9477 27.4502L35.6668 28.4722ZM32.7865 33.3173L31.0673 32.2953L30.019 34.0585L31.8083 35.0618L32.7865 33.3173ZM34.4482 34.249L35.4264 32.5046L35.4263 32.5045L34.4482 34.249ZM34.6774 34.3881L33.582 36.0614L34.081 36.3881H34.6774V34.3881ZM32.6521 34.3881V36.3881H40.3085L33.6303 32.6436L32.6521 34.3881ZM32.2754 34.1769L33.2536 32.4324L31.5527 31.4787L30.5563 33.1548L32.2754 34.1769ZM32.1499 34.3881L30.4307 33.3661L28.6342 36.3881H32.1499V34.3881ZM34.7946 27.9831L36.5137 29.0052L37.562 27.2419L35.7727 26.2386L34.7946 27.9831ZM31.9142 32.8282L30.9361 34.5727L32.6369 35.5264L33.6334 33.8503L31.9142 32.8282ZM33.1328 27.0514L32.1547 28.7959L32.1547 28.7959L33.1328 27.0514ZM30.939 26.7703L30.4353 24.8348L30.4353 24.8348L30.939 26.7703ZM29.1917 28.0717L27.4726 27.0496L27.4726 27.0497L29.1917 28.0717ZM28.9049 30.1919L30.8329 29.66L30.8329 29.66L28.9049 30.1919ZM30.2524 31.8965L29.2743 33.641L29.2743 33.641L30.2524 31.8965ZM54.2617 33.7607C54.2617 33.9513 54.2589 34.1412 54.2534 34.3303L58.2518 34.4459C58.2583 34.2182 58.2617 33.9898 58.2617 33.7607H54.2617ZM33.6523 13.8035C45.0901 13.8035 54.2617 22.7934 54.2617 33.7607H58.2617C58.2617 20.4747 47.1881 9.8035 33.6523 9.8035V13.8035ZM13.043 33.7607C13.043 22.7934 22.2145 13.8035 33.6523 13.8035V9.8035C20.1165 9.8035 9.04297 20.4747 9.04297 33.7607H13.043ZM13.0512 34.3303C13.0457 34.1412 13.043 33.9513 13.043 33.7607H9.04297C9.04297 33.9898 9.04628 34.2182 9.05285 34.4458L13.0512 34.3303ZM30.9869 32.3881H11.052V36.3881H30.9869V32.3881ZM29.684 32.6658L29.2677 33.3661L32.706 35.4101L33.1223 34.7098L29.684 32.6658ZM32.3813 31.9433L30.7196 31.0116L28.7633 34.5005L30.4251 35.4323L32.3813 31.9433ZM30.7196 31.0116C30.2821 30.7663 29.979 30.3722 29.8566 29.9289L26.0007 30.9928C26.4135 32.489 27.4156 33.7449 28.7633 34.5005L30.7196 31.0116ZM29.8566 29.9289C29.7347 29.4869 29.7964 29.012 30.0386 28.6046L26.6003 26.5606C25.8051 27.8982 25.5874 29.4947 26.0007 30.9928L29.8566 29.9289ZM30.0386 28.6046C30.2822 28.1949 30.6936 27.8807 31.1944 27.7504L30.1871 23.8793C28.69 24.2688 27.3941 25.2253 26.6003 26.5606L30.0386 28.6046ZM31.1944 27.7504C31.6958 27.6199 32.2265 27.69 32.6657 27.9363L34.622 24.4473C33.2761 23.6927 31.6828 23.4901 30.1871 23.8793L31.1944 27.7504ZM32.6657 27.9363L34.3275 28.8681L36.2837 25.3791L34.622 24.4473L32.6657 27.9363ZM35.2689 23.2715L33.5865 26.1015L37.0248 28.1456L38.7072 25.3156L35.2689 23.2715ZM38.6578 22.3638C37.4707 21.6982 35.9644 22.1017 35.2689 23.2715L38.7072 25.3156C38.2939 26.0107 37.4069 26.2483 36.7015 25.8528L38.6578 22.3638ZM39.5794 25.8046C40.2951 24.6008 39.8794 23.0488 38.6578 22.3638L36.7015 25.8528C35.9616 25.4379 35.7077 24.4897 36.1411 23.7606L39.5794 25.8046ZM37.897 28.6347L39.5794 25.8046L36.1411 23.7606L34.4587 26.5906L37.897 28.6347ZM35.1997 29.3571L38.9594 31.4652L40.9156 27.9762L37.156 25.8681L35.1997 29.3571ZM38.9594 31.4652C38.2195 31.0503 37.9655 30.1021 38.399 29.3729L41.8373 31.417C42.553 30.2131 42.1373 28.6611 40.9156 27.9762L38.9594 31.4652ZM38.399 29.373C38.8122 28.6778 39.6993 28.4402 40.4046 28.8357L38.4484 32.3247C39.6355 32.9903 41.1418 32.5869 41.8373 31.417L38.399 29.373ZM40.4046 28.8357L36.645 26.7277L34.6887 30.2167L38.4484 32.3247L40.4046 28.8357ZM34.5056 34.3393L37.386 29.4942L33.9477 27.4502L31.0673 32.2953L34.5056 34.3393ZM31.8083 35.0618L33.4701 35.9935L35.4263 32.5045L33.7646 31.5728L31.8083 35.0618ZM33.4701 35.9935C33.5085 36.0151 33.5458 36.0377 33.582 36.0614L35.7728 32.7147C35.6601 32.6409 35.5445 32.5708 35.4264 32.5046L33.4701 35.9935ZM56.2526 32.3881H34.6774V36.3881H56.2526V32.3881ZM33.6303 32.6436L33.2536 32.4324L31.2973 35.9214L31.674 36.1326L33.6303 32.6436ZM33.869 35.4101L33.9946 35.1989L30.5563 33.1548L30.4307 33.3661L33.869 35.4101ZM32.6521 32.3881H32.1499V36.3881H32.6521V32.3881ZM33.0754 26.9611L30.1951 31.8062L33.6334 33.8503L36.5137 29.0052L33.0754 26.9611ZM35.7727 26.2386L34.111 25.3069L32.1547 28.7959L33.8165 29.7276L35.7727 26.2386ZM34.111 25.3069C32.9922 24.6796 31.6715 24.5131 30.4353 24.8348L31.4427 28.7059C31.6847 28.6429 31.9428 28.6771 32.1547 28.7959L34.111 25.3069ZM30.4353 24.8348C29.1984 25.1567 28.1284 25.9465 27.4726 27.0496L30.9109 29.0937C31.0166 28.9159 31.2022 28.7685 31.4427 28.7059L30.4353 24.8348ZM27.4726 27.0497C26.8154 28.1551 26.6333 29.4783 26.9769 30.7238L30.8329 29.66C30.7806 29.4707 30.8066 29.2691 30.9109 29.0937L27.4726 27.0497ZM26.9769 30.7238C27.3202 31.9679 28.1538 33.0127 29.2743 33.641L31.2306 30.152C31.0205 30.0342 30.8857 29.8513 30.8329 29.66L26.9769 30.7238ZM29.2743 33.641L30.9361 34.5727L32.8923 31.0837L31.2306 30.152L29.2743 33.641Z" fill="#72662F" mask="url(#path-13-inside-2_22_807)"/>
</svg>
